<?xml version="1.0" standalone="no"?>
<!DOCTYPE svg PUBLIC "-//W3C//DTD SVG 20010904//EN"
 "http://www.w3.org/TR/2001/REC-SVG-20010904/DTD/svg10.dtd">
<svg version="1.0" xmlns="http://www.w3.org/2000/svg"
 width="70.000000pt" height="70.000000pt" viewBox="0 0 70.000000 70.000000"
 preserveAspectRatio="xMidYMid meet">
<metadata>
Created by potrace 1.11, written by Peter Selinger 2001-2013
</metadata>
<g transform="translate(0.000000,70.000000) scale(0.100000,-0.100000)"
fill="#000000" stroke="none">
<path d="M500 625 c-152 -28 -352 -55 -396 -55 -51 0 -104 -26 -104 -51 0 -9
15 -24 33 -34 30 -16 42 -16 117 -6 46 6 94 11 108 11 l24 0 -6 -82 c-18 -248
-19 -344 -2 -376 13 -25 23 -32 45 -32 45 0 55 20 47 101 -4 39 -3 110 3 158
6 47 15 122 20 166 7 53 15 83 26 91 21 15 124 29 192 25 76 -4 93 4 93 44 0
28 -5 35 -31 44 -39 14 -73 13 -169 -4z"/>
</g>
</svg>
